<?xml version="1.0" encoding="UTF-8"?>
<svg id="Layer_1" data-name="Layer 1" xmlns="http://www.w3.org/2000/svg" viewBox="0 0 743.02 383.33" fill="#fff">
  <g>
    <path d="M724.78,316.63c11.67,4.68,17.11,13.3,18.25,25.22h-31.43c-.92-1.99-1.56-4.29-2.9-6.07-2.61-3.48-6.51-4.25-10.67-4.24-14.74,.03-29.48,.01-44.22,.01h-4.43v-23.93c.92,0,1.81,0,2.7,0,14.41,0,28.81,0,43.22,0,8.38,0,11.7-2.87,13-11.36h33.3c-.27,7.27-3.42,14.83-16.82,20.36Z"/>
    <path d="M308.77,298.94h-31.41c-.1-.32-.24-.61-.27-.92-.92-8.12-5.15-11.39-13.02-12.62-3.27-.51-6.63-.64-9.95-.66-12.08-.07-24.15-.03-36.23-.03-.9,0-1.8,0-2.85,0v-25.21c.86-.04,1.74-.13,2.61-.13,16.74,0,33.48-.04,50.22,0,11.4,.03,21.7,3.22,29.85,11.53,7.51,7.66,10.78,17.12,11.04,28.03Z"/>
    <path d="M215.12,316.22c1.05,0,2.03,0,3.01,0,14.24-.03,28.48,.04,42.72-.17,2.83-.04,5.76-.82,8.43-1.83,4.4-1.65,6.81-5.12,7.39-9.81,.08-.65,.25-1.29,.4-2.04h31.57c-.48,8.39-2.79,16-7.57,22.74-7.87,11.09-18.93,16.12-32.27,16.24-17.4,.15-34.81,.04-52.22,.03-.41,0-.82-.06-1.46-.11v-25.05Z"/>
    <path d="M649.24,380.06v-25.66c1.02,0,1.97,0,2.93,0,14.57,0,29.15,0,43.72,0,1.66,0,3.33-.03,4.98-.2,5.44-.54,9.21-3.11,10.31-8.85h31.72c1.07,12.81-5.34,25.69-18.1,30.95-6.72,2.77-13.75,3.82-20.94,3.84-17.74,.06-35.48,.02-53.22,.02-.4,0-.8-.05-1.4-.09Z"/>
    <path d="M649.29,284.87v-25.51c.85,0,1.65,0,2.46,0,17.25,0,34.5-.1,51.74,.04,8.83,.07,17.41,1.56,24.99,6.53,9.56,6.27,13.28,15.49,13.46,26.76-.92,.07-1.64,.17-2.36,.17-9.75,.01-19.5-.02-29.25.03-1.53,0-2.34-.31-2.85-1.96-1.21-3.9-4.31-5.55-8.16-5.81-3.24-.22-6.49-.24-9.73-.25-12.41-.03-24.83-.01-37.24-.01h-3.07Z"/>
    <path d="M631.15,354.62v25.39h-86.08v-25.39h86.08Z"/>
    <path d="M440.69,379.98v-25.43h86.07v25.43h-86.07Z"/>
    <path d="M197.19,359.59H95.14c1.73-4.89,3.41-9.66,5.1-14.42,.86-2.43,1.84-4.83,2.59-7.29,.45-1.48,1.24-1.86,2.71-1.85,8.08,.07,16.17,.03,24.25,.03,19.08,0,38.16,.03,57.25-.04,1.87,0,2.72,.44,3.3,2.34,1.99,6.5,4.22,12.92,6.35,19.37,.18,.54,.3,1.09,.51,1.86Z"/>
    <path d="M628.97,259.59v25.38h-83.89v-25.38h83.89Z"/>
    <path d="M440.69,284.94v-25.43h83.85v25.43h-83.85Z"/>
    <path d="M188.47,332.72c-10.69,0-21.01,.03-31.33-.07-.69,0-1.78-.87-1.98-1.54-2.74-9.39-5.37-18.81-8-28.23-.2-.71-.26-1.48-.26-2.22-.01-13.16-.01-26.32,0-39.49,0-.49,.08-.97,.15-1.78,5.54,0,11-.04,16.46,.07,.45,0,1.09,.89,1.29,1.48,3.76,11.14,7.49,22.3,11.18,33.47,3.94,11.95,7.83,23.93,11.74,35.89,.23,.7,.44,1.41,.75,2.42Z"/>
    <path d="M545.08,332.43v-25.65h77.65v25.65h-77.65Z"/>
    <path d="M440.73,306.73h77.8v25.65h-77.8v-25.65Z"/>
    <path d="M327.28,306.7h73.4c-1.33,2.39-2.5,4.65-3.81,6.81-1.07,1.75-1.35,3.26-.23,5.25,2.48,4.39,4.63,8.96,7.02,13.66h-76.37v-25.72Z"/>
    <path d="M65.04,318.1h-31.28v-58.52h31.28v58.52Z"/>
    <path d="M33.73,321.53h31.28v58.44h-31.28v-58.44Z"/>
    <path d="M104.81,332.47c2.37-6.6,4.65-13,6.96-19.38,6.18-17.1,12.41-34.19,18.53-51.31,.67-1.89,1.53-2.58,3.54-2.46,3.22,.19,6.46,.05,9.89,.05,0,1.2,0,2.1,0,3.01,0,11.24-.07,22.48,.04,33.72,.04,3.87-.42,7.56-1.66,11.25-2.61,7.8-4.99,15.68-7.41,23.55-.35,1.13-.65,1.88-2.11,1.86-8.91-.07-17.81-.04-26.72-.05-.24,0-.47-.1-1.05-.24Z"/>
    <path d="M371.57,335.64c11.09,0,21.74,.04,32.4-.04,1.7-.01,2.07,1.1,2.62,2.16,5.39,10.5,10.74,21.02,16.13,31.51,1.81,3.52,3.68,7,5.72,10.88h-8.1c-8.66,0-17.31-.05-25.97,.04-1.65,.02-2.53-.45-3.22-1.97-5.44-11.94-10.95-23.83-16.44-35.75-1-2.17-1.99-4.34-3.13-6.84Z"/>
    <path d="M370.04,303.19c3.16-5.84,6.19-11.53,9.3-17.18,4.27-7.77,8.65-15.48,12.83-23.3,1.25-2.34,2.54-3.53,5.49-3.44,8.91,.26,17.83,.09,26.74,.09h3.24c-1.92,3.44-3.59,6.52-5.32,9.56-4.54,7.99-9.1,15.98-13.66,23.96-1.77,3.09-3.5,6.2-5.38,9.23-.4,.64-1.32,1.36-2.01,1.36-10.16,.08-20.33,.04-30.49,.02-.14,0-.28-.12-.73-.31Z"/>
    <path d="M358.63,335.82v44.17h-31.3v-44.17h31.3Z"/>
    <path d="M327.24,303.35v-43.79h31.31v43.79h-31.31Z"/>
    <path d="M262.12,344.63c10.32,.27,20.25-.65,29.4-6.17,6.35,13.88,12.63,27.59,19.02,41.55-.91,.06-1.53,.13-2.15,.13-10.08,0-20.16,0-30.24,.02-1.25,0-2.2-.08-2.75-1.48-4.22-10.81-8.51-21.6-12.77-32.39-.18-.45-.28-.92-.51-1.67Z"/>
    <path d="M246.52,344.79v35.17h-31.46v-35.17h31.46Z"/>
    <path d="M246.5,313.07h-31.4v-24.83h31.4v24.83Z"/>
    <path d="M0,284.92v-25.37H30.06v25.37H0Z"/>
    <path d="M98.61,285.04h-30.08v-25.45h30.08v25.45Z"/>
    <path d="M203.99,380.06h-35.14c-1.6-5.51-3.21-11.06-4.92-16.98,.95-.07,1.72-.17,2.49-.18,9.91-.01,19.82,.02,29.73-.04,1.55-.01,2.37,.35,2.86,1.95,1.55,5.06,3.27,10.06,4.98,15.25Z"/>
    <path d="M87.74,380.03c2-5.47,3.86-10.7,5.85-15.87,.22-.57,1.19-1.2,1.82-1.2,9.64-.08,19.29-.05,29.37-.05-1.76,5.84-3.45,11.43-5.17,17.12h-31.87Z"/>
    <path d="M679.94,304.45h-30.58v-16.13h30.58v16.13Z"/>
    <path d="M649.37,334.78h30.59v16.19h-30.59v-16.19Z"/>
    <path d="M545.08,335.78h31.38v15.18h-31.38v-15.18Z"/>
    <path d="M576.41,303.41h-31.29v-15.05h31.29v15.05Z"/>
    <path d="M440.74,335.73h31.26v15.28h-31.26v-15.28Z"/>
    <path d="M472.03,288.38v15.02h-31.24v-15.02h31.24Z"/>
  </g>
  <g>
    <path d="M168.18,142.42c-1.38,2.48-2.38,4.66-3.7,6.62-4.46,6.57-11.05,10.14-18.34,12.61-8.39,2.84-17.09,4.15-25.87,4.85-8.28,.66-16.59,.92-25.08,1.36v-47.32c.92,0,1.88,.04,2.84,0,10.63-.46,21.3-.58,31.88-1.56,5.01-.46,9.98-2.27,14.76-4.03,3.43-1.26,5.7-4.15,7.04-7.68,.25-.66,1.21-1.49,1.85-1.49,10.24-.07,20.49-.02,30.73,.01,.15,0,.3,.13,.76.34,.73,11.27,8.59,14.07,18.37,14.37v46.85c-16.63,.07-30.71-6.96-35.23-24.92Z"/>
    <path d="M671.42,167.55c-6.32-.28-11.6-2.59-15.86-6.46-2.28,6.93-4.15,13.94-6.87,20.61-5.69,13.96-14.28,25.71-27.84,33.06-4.03,2.18-8.48,3.6-13.23,5.58-.08-1.58-.16-2.44-.16-3.29,0-14.5,.02-28.99-.04-43.49,0-1.77,.43-2.8,2.1-3.72,6.5-3.6,10.42-9.33,12.79-16.25,3.11-9.07,3.53-18.46,2.85-27.87-.75-10.44-2-20.84-3.02-31.26-.05-.49,0-.98,0-1.61h32.5c.64,6.51,1.36,12.95,1.89,19.41,.41,4.96,1.67,6.63,6.6,7.52,2.69,.49,5.44,.65,8.29,.97v46.82Z"/>
    <path d="M90.89,120.2v47.01c-6.49,0-12.88,.21-19.25-.04-13.07-.53-26.02-1.93-38.52-6.23-16.32-5.62-25.84-16.94-28.53-33.88-1.05-6.62-1.36-13.36-2.03-20.21,1.18-.11,1.81-.22,2.45-.22,9.83-.01,19.65-.03,29.48,.03,.78,0,1.97,.32,2.26,.87,2.81,5.26,7.57,7.73,12.96,9.32,8.7,2.57,17.68,3.04,26.66,3.32,4.79,.15,9.6,.03,14.51,.03Z"/>
    <path d="M587.4,116.53c.4,24.49-12.28,44.49-36.85,49.47-5.42,1.1-11.04,1.43-16.58,1.56-10.32,.24-20.65,.07-30.98,.07h-216.87v-47.1c.92,0,215.8,0,216.69,0,13.08,0,26.15,.11,39.23-.06,4.13-.05,8.25-.81,12.36-1.32,.89-.11,1.93-.28,2.58-.81,2.81-2.3,6.09-1.79,9.29-1.8,6.99-.02,13.98,0,21.14,0Z"/>
    <path d="M281.51,120.52v46.74c-15.14,.58-30.94-5.03-36.45-24.77-5.37,18.88-19.33,24.55-36.95,25.14v-46.9c3.07-.39,6.2-.6,9.26-1.22,6.49-1.33,10.7-5.06,11.7-11.88,.09-.64,.33-1.27,.5-1.91h32.5c.69,12.31,9.3,14.46,19.44,14.81Z"/>
    <path d="M505.09,57.63c15.33,2.44,30.43,4.97,45,9.85,9.65,3.23,18.87,7.3,26.21,14.72,8.15,8.25,10.88,18.5,11.34,29.99-3.48,0-6.71,0-9.93,0-5.08,0-10.17,.03-15.25-.03-.75,0-1.89-.2-2.16-.69-2.39-4.3-6.66-5.93-10.8-7.57-11.74-4.65-24.12-6.89-36.45-9.29-2.61-.51-5.23-.96-7.96-1.46V57.63Z"/>
    <path d="M595.04,3.13c0,13.46,.03,26.45-.07,39.44,0,.7-.88,1.71-1.61,2.05-8.47,4.05-16.98,8-25.48,11.98-4.44,2.08-8.84,4.22-13.32,6.2-.96,.43-2.27,.62-3.26,.35-14.68-4.07-29.56-7.2-44.61-9.58-.63-.1-1.67-.91-1.62-1.25,.12-.82,.59-1.92,1.26-2.28,8.32-4.52,16.7-8.94,25.07-13.38,19.38-10.27,38.76-20.55,58.15-30.81,1.67-.89,3.4-1.68,5.49-2.72Z"/>
    <path d="M676.12,120.67c1.87-.33,3.59-.61,5.29-.93,6.65-1.25,10.71-5.32,12.45-11.73,.47-1.72,1.12-2.38,3-2.36,8.82,.11,17.65,.05,26.47,.05h2.6c-.12,2.4-.14,4.6-.35,6.79-1.24,12.94-4.61,25.14-12.49,35.76-8.04,10.84-18.82,17.03-32.14,18.87-1.55,.21-3.11,.31-4.84,.48v-46.93Z"/>
    <path d="M575.93,171.85c8.96,2.09,17.91,2.7,27.06,.77v47.86c-9.03,.9-17.77,.47-25.9-4-.7-.39-1.4-1.52-1.41-2.31-.08-13.83-.04-27.66-.03-41.49,0-.15,.1-.31,.27-.84Z"/>
    <path d="M722.9,70.3c1.16,10.36,2.29,20.56,3.46,31.02h-30.59c-1.16-10.41-2.3-20.67-3.45-31.02h30.58Z"/>
    <path d="M35.5,102.24H3.11c.48-4.51,.75-8.88,1.45-13.18,.77-4.75,1.87-9.46,2.98-14.14,.16-.68,1.22-1.65,1.87-1.65,9.57-.1,19.15-.07,28.72-.06,.3,0,.6,.15,1.11,.28-3.06,9.32-4.88,18.72-3.73,28.75Z"/>
    <path d="M78.17,196.33c6.24-6.05,13.15-12.76,20.29-19.67,7.06,6.83,14.03,13.57,20.73,20.05-6.85,7.22-13.53,14.26-20.4,21.49-7.05-7.47-13.76-14.59-20.63-21.87Z"/>
    <path d="M184.6,77.85v23.57h-31.8v-23.57h31.8Z"/>
    <path d="M229.69,101.37v-23.46h31.88v23.46h-31.88Z"/>
    <path d="M724.55,21c6.43,6.63,12.34,12.72,18.48,19.06-6.05,6.29-12.02,12.49-18.12,18.84-4.82-4.81-9.56-9.45-14.16-14.22-.56-.58-.45-1.84-.6-2.79-.67-4.12,.78-7.19,3.96-9.98,3.68-3.23,6.82-7.06,10.45-10.89Z"/>
    <path d="M691.19,58.95c-6.21-6.41-12.16-12.55-18.44-19.02,6.38-5.93,12.64-11.75,19.05-17.72,4.02,3.91,8.62,8.34,13.14,12.86,.51,.51,.72,1.46,.82,2.23,.63,4.54-.39,8.26-4.27,11.36-3.68,2.95-6.74,6.67-10.32,10.29Z"/>
    <path d="M229.32,209.46c-5.56-5.78-10.84-11.28-16.49-17.16,5.7-5.25,11.35-10.46,17.09-15.76,3.45,3.34,7.61,7.16,11.47,11.26,.89,.94,.85,2.82,1.11,4.29,.52,2.87-.62,4.96-2.77,6.92-3.55,3.24-6.82,6.8-10.42,10.44Z"/>
    <path d="M259.63,175.68c5.46,5.66,10.75,11.15,16.22,16.83-5.42,5.63-10.71,11.13-16.15,16.78-4.22-4.21-8.81-8.05-12.33-12.7-1.37-1.81-1.49-6.31-.16-8.08,3.5-4.66,8.1-8.5,12.42-12.83Z"/>
  </g>
</svg>