<?xml version="1.0" encoding="utf-8"?>
<!-- Generator: Adobe Illustrator 27.0.1, SVG Export Plug-In . SVG Version: 6.00 Build 0)  -->
<svg version="1.1" id="Layer_1" xmlns="http://www.w3.org/2000/svg" xmlns:xlink="http://www.w3.org/1999/xlink" x="0px" y="0px"
	 viewBox="0 0 743 383.3" style="enable-background:new 0 0 743 383.3;" xml:space="preserve">
<style type="text/css">
	.st0{fill:#FFFFFF;}
</style>
<path class="st0" d="M724.8,316.6c11.7,4.7,17.1,13.3,18.2,25.2c-10.6,0-21,0-31.4,0c-0.9-2-1.6-4.3-2.9-6.1
	c-2.6-3.5-6.5-4.3-10.7-4.2c-14.7,0-29.5,0-44.2,0c-1.4,0-2.8,0-4.4,0c0-8,0-15.8,0-23.9c0.9,0,1.8,0,2.7,0c14.4,0,28.8,0,43.2,0
	c8.4,0,11.7-2.9,13-11.4c11.1,0,22.2,0,33.3,0C741.3,303.5,738.2,311.1,724.8,316.6z"/>
<path class="st0" d="M308.8,298.9c-10.7,0-21,0-31.4,0c-0.1-0.3-0.2-0.6-0.3-0.9c-0.9-8.1-5.1-11.4-13-12.6
	c-3.3-0.5-6.6-0.6-9.9-0.7c-12.1-0.1-24.2,0-36.2,0c-0.9,0-1.8,0-2.9,0c0-8.5,0-16.7,0-25.2c0.9,0,1.7-0.1,2.6-0.1
	c16.7,0,33.5,0,50.2,0c11.4,0,21.7,3.2,29.9,11.5C305.2,278.6,308.5,288,308.8,298.9z"/>
<path class="st0" d="M215.1,316.2c1,0,2,0,3,0c14.2,0,28.5,0,42.7-0.2c2.8,0,5.8-0.8,8.4-1.8c4.4-1.7,6.8-5.1,7.4-9.8
	c0.1-0.7,0.3-1.3,0.4-2c10.5,0,21,0,31.6,0c-0.5,8.4-2.8,16-7.6,22.7c-7.9,11.1-18.9,16.1-32.3,16.2c-17.4,0.2-34.8,0-52.2,0
	c-0.4,0-0.8-0.1-1.5-0.1C215.1,333,215.1,324.7,215.1,316.2z"/>
<path class="st0" d="M649.2,380.1c0-8.6,0-16.9,0-25.7c1,0,2,0,2.9,0c14.6,0,29.1,0,43.7,0c1.7,0,3.3,0,5-0.2
	c5.4-0.5,9.2-3.1,10.3-8.8c10.6,0,21.2,0,31.7,0c1.1,12.8-5.3,25.7-18.1,31c-6.7,2.8-13.7,3.8-20.9,3.8c-17.7,0.1-35.5,0-53.2,0
	C650.2,380.2,649.8,380.1,649.2,380.1z"/>
<path class="st0" d="M649.3,284.9c0-8.6,0-16.9,0-25.5c0.8,0,1.7,0,2.5,0c17.2,0,34.5-0.1,51.7,0c8.8,0.1,17.4,1.6,25,6.5
	c9.6,6.3,13.3,15.5,13.5,26.8c-0.9,0.1-1.6,0.2-2.4,0.2c-9.7,0-19.5,0-29.2,0c-1.5,0-2.3-0.3-2.9-2c-1.2-3.9-4.3-5.6-8.2-5.8
	c-3.2-0.2-6.5-0.2-9.7-0.2c-12.4,0-24.8,0-37.2,0C651.4,284.9,650.4,284.9,649.3,284.9z"/>
<path class="st0" d="M631.2,354.6c0,8.5,0,16.9,0,25.4c-28.7,0-57.3,0-86.1,0c0-8.4,0-16.8,0-25.4
	C573.7,354.6,602.4,354.6,631.2,354.6z"/>
<path class="st0" d="M440.7,380c0-8.5,0-16.9,0-25.4c28.7,0,57.3,0,86.1,0c0,8.5,0,16.9,0,25.4C498.1,380,469.5,380,440.7,380z"/>
<path class="st0" d="M197.2,359.6c-34.2,0-68,0-102.1,0c1.7-4.9,3.4-9.7,5.1-14.4c0.9-2.4,1.8-4.8,2.6-7.3c0.4-1.5,1.2-1.9,2.7-1.9
	c8.1,0.1,16.2,0,24.2,0c19.1,0,38.2,0,57.2,0c1.9,0,2.7,0.4,3.3,2.3c2,6.5,4.2,12.9,6.4,19.4C196.9,358.3,197,358.8,197.2,359.6z"/>
<path class="st0" d="M629,259.6c0,8.5,0,16.8,0,25.4c-28,0-55.9,0-83.9,0c0-8.4,0-16.8,0-25.4C573,259.6,600.9,259.6,629,259.6z"/>
<path class="st0" d="M440.7,284.9c0-8.5,0-16.9,0-25.4c28,0,55.9,0,83.8,0c0,8.5,0,16.9,0,25.4C496.7,284.9,468.8,284.9,440.7,284.9
	z"/>
<path class="st0" d="M188.5,332.7c-10.7,0-21,0-31.3-0.1c-0.7,0-1.8-0.9-2-1.5c-2.7-9.4-5.4-18.8-8-28.2c-0.2-0.7-0.3-1.5-0.3-2.2
	c0-13.2,0-26.3,0-39.5c0-0.5,0.1-1,0.2-1.8c5.5,0,11,0,16.5,0.1c0.4,0,1.1,0.9,1.3,1.5c3.8,11.1,7.5,22.3,11.2,33.5
	c3.9,12,7.8,23.9,11.7,35.9C187.9,331,188.2,331.7,188.5,332.7z"/>
<path class="st0" d="M545.1,332.4c0-8.6,0-17.1,0-25.7c25.9,0,51.7,0,77.6,0c0,8.5,0,17,0,25.7C596.8,332.4,571,332.4,545.1,332.4z"
	/>
<path class="st0" d="M440.7,306.7c26,0,51.9,0,77.8,0c0,8.6,0,17,0,25.7c-25.9,0-51.8,0-77.8,0C440.7,323.8,440.7,315.4,440.7,306.7
	z"/>
<path class="st0" d="M327.3,306.7c24.5,0,48.8,0,73.4,0c-1.3,2.4-2.5,4.6-3.8,6.8c-1.1,1.8-1.4,3.3-0.2,5.2c2.5,4.4,4.6,9,7,13.7
	c-25.6,0-50.9,0-76.4,0C327.3,323.8,327.3,315.4,327.3,306.7z"/>
<path class="st0" d="M65,318.1c-10.5,0-20.8,0-31.3,0c0-19.4,0-38.9,0-58.5c10.4,0,20.8,0,31.3,0C65,279,65,298.4,65,318.1z"/>
<path class="st0" d="M33.7,321.5c10.4,0,20.8,0,31.3,0c0,19.5,0,38.9,0,58.4c-10.4,0-20.7,0-31.3,0
	C33.7,360.6,33.7,341.1,33.7,321.5z"/>
<path class="st0" d="M104.8,332.5c2.4-6.6,4.6-13,7-19.4c6.2-17.1,12.4-34.2,18.5-51.3c0.7-1.9,1.5-2.6,3.5-2.5
	c3.2,0.2,6.5,0.1,9.9,0.1c0,1.2,0,2.1,0,3c0,11.2-0.1,22.5,0,33.7c0,3.9-0.4,7.6-1.7,11.3c-2.6,7.8-5,15.7-7.4,23.5
	c-0.3,1.1-0.7,1.9-2.1,1.9c-8.9-0.1-17.8,0-26.7-0.1C105.6,332.7,105.4,332.6,104.8,332.5z"/>
<path class="st0" d="M371.6,335.6c11.1,0,21.7,0,32.4,0c1.7,0,2.1,1.1,2.6,2.2c5.4,10.5,10.7,21,16.1,31.5c1.8,3.5,3.7,7,5.7,10.9
	c-3,0-5.5,0-8.1,0c-8.7,0-17.3,0-26,0c-1.7,0-2.5-0.4-3.2-2c-5.4-11.9-11-23.8-16.4-35.7C373.7,340.3,372.7,338.1,371.6,335.6z"/>
<path class="st0" d="M370,303.2c3.2-5.8,6.2-11.5,9.3-17.2c4.3-7.8,8.7-15.5,12.8-23.3c1.3-2.3,2.5-3.5,5.5-3.4
	c8.9,0.3,17.8,0.1,26.7,0.1c0.9,0,1.8,0,3.2,0c-1.9,3.4-3.6,6.5-5.3,9.6c-4.5,8-9.1,16-13.7,24c-1.8,3.1-3.5,6.2-5.4,9.2
	c-0.4,0.6-1.3,1.4-2,1.4c-10.2,0.1-20.3,0-30.5,0C370.6,303.5,370.5,303.4,370,303.2z"/>
<path class="st0" d="M358.6,335.8c0,14.7,0,29.4,0,44.2c-10.4,0-20.8,0-31.3,0c0-14.6,0-29.3,0-44.2
	C337.6,335.8,348,335.8,358.6,335.8z"/>
<path class="st0" d="M327.2,303.3c0-14.6,0-29.1,0-43.8c10.4,0,20.8,0,31.3,0c0,14.5,0,29.1,0,43.8
	C348.2,303.3,337.9,303.3,327.2,303.3z"/>
<path class="st0" d="M262.1,344.6c10.3,0.3,20.2-0.7,29.4-6.2c6.4,13.9,12.6,27.6,19,41.6c-0.9,0.1-1.5,0.1-2.2,0.1
	c-10.1,0-20.2,0-30.2,0c-1.2,0-2.2-0.1-2.8-1.5c-4.2-10.8-8.5-21.6-12.8-32.4C262.5,345.9,262.3,345.4,262.1,344.6z"/>
<path class="st0" d="M246.5,344.8c0,11.7,0,23.4,0,35.2c-10.4,0-20.8,0-31.5,0c0-11.6,0-23.3,0-35.2
	C225.6,344.8,236,344.8,246.5,344.8z"/>
<path class="st0" d="M246.5,313.1c-10.6,0-20.9,0-31.4,0c0-8.3,0-16.4,0-24.8c10.4,0,20.8,0,31.4,0
	C246.5,296.5,246.5,304.7,246.5,313.1z"/>
<path class="st0" d="M0,284.9c0-8.4,0-16.8,0-25.4c10,0,20,0,30.1,0c0,8.4,0,16.8,0,25.4C20.2,284.9,10.2,284.9,0,284.9z"/>
<path class="st0" d="M98.6,285c-10.2,0-20,0-30.1,0c0-8.5,0-16.8,0-25.4c10,0,20,0,30.1,0C98.6,268.1,98.6,276.4,98.6,285z"/>
<path class="st0" d="M204,380.1c-11.8,0-23.4,0-35.1,0c-1.6-5.5-3.2-11.1-4.9-17c1-0.1,1.7-0.2,2.5-0.2c9.9,0,19.8,0,29.7,0
	c1.5,0,2.4,0.3,2.9,1.9C200.6,369.9,202.3,374.9,204,380.1z"/>
<path class="st0" d="M87.7,380c2-5.5,3.9-10.7,5.8-15.9c0.2-0.6,1.2-1.2,1.8-1.2c9.6-0.1,19.3-0.1,29.4-0.1
	c-1.8,5.8-3.5,11.4-5.2,17.1C109.1,380,98.6,380,87.7,380z"/>
<path class="st0" d="M679.9,304.4c-10.3,0-20.3,0-30.6,0c0-5.4,0-10.6,0-16.1c10.1,0,20.2,0,30.6,0
	C679.9,293.6,679.9,298.9,679.9,304.4z"/>
<path class="st0" d="M649.4,334.8c10.2,0,20.3,0,30.6,0c0,5.4,0,10.7,0,16.2c-10.2,0-20.3,0-30.6,0
	C649.4,345.7,649.4,340.3,649.4,334.8z"/>
<path class="st0" d="M545.1,335.8c10.7,0,21,0,31.4,0c0,5.1,0,10,0,15.2c-10.5,0-20.9,0-31.4,0C545.1,345.9,545.1,340.8,545.1,335.8
	z"/>
<path class="st0" d="M576.4,303.4c-10.5,0-20.8,0-31.3,0c0-5,0-9.9,0-15.1c10.4,0,20.8,0,31.3,0
	C576.4,293.3,576.4,298.2,576.4,303.4z"/>
<path class="st0" d="M440.7,335.7c10.5,0,20.8,0,31.3,0c0,5.1,0,10.1,0,15.3c-10.4,0-20.7,0-31.3,0
	C440.7,346,440.7,340.9,440.7,335.7z"/>
<path class="st0" d="M472,288.4c0,5.1,0,10,0,15c-10.4,0-20.7,0-31.2,0c0-5,0-9.9,0-15C451.1,288.4,461.5,288.4,472,288.4z"/>
<path class="st0" d="M168.2,142.4c-1.4,2.5-2.4,4.7-3.7,6.6c-4.5,6.6-11,10.1-18.3,12.6c-8.4,2.8-17.1,4.1-25.9,4.8
	c-8.3,0.7-16.6,0.9-25.1,1.4c0-15.9,0-31.4,0-47.3c0.9,0,1.9,0,2.8,0c10.6-0.5,21.3-0.6,31.9-1.6c5-0.5,10-2.3,14.8-4
	c3.4-1.3,5.7-4.1,7-7.7c0.3-0.7,1.2-1.5,1.8-1.5c10.2-0.1,20.5,0,30.7,0c0.2,0,0.3,0.1,0.8,0.3c0.7,11.3,8.6,14.1,18.4,14.4
	c0,15.8,0,31.3,0,46.9C186.8,167.4,172.7,160.4,168.2,142.4z"/>
<path class="st0" d="M671.4,167.5c-6.3-0.3-11.6-2.6-15.9-6.5c-2.3,6.9-4.2,13.9-6.9,20.6c-5.7,14-14.3,25.7-27.8,33.1
	c-4,2.2-8.5,3.6-13.2,5.6c-0.1-1.6-0.2-2.4-0.2-3.3c0-14.5,0-29,0-43.5c0-1.8,0.4-2.8,2.1-3.7c6.5-3.6,10.4-9.3,12.8-16.2
	c3.1-9.1,3.5-18.5,2.8-27.9c-0.8-10.4-2-20.8-3-31.3c0-0.5,0-1,0-1.6c10.8,0,21.5,0,32.5,0c0.6,6.5,1.4,13,1.9,19.4
	c0.4,5,1.7,6.6,6.6,7.5c2.7,0.5,5.4,0.6,8.3,1C671.4,136.2,671.4,151.8,671.4,167.5z"/>
<path class="st0" d="M90.9,120.2c0,16.1,0,31.7,0,47c-6.5,0-12.9,0.2-19.2,0c-13.1-0.5-26-1.9-38.5-6.2
	C16.8,155.3,7.3,144,4.6,127.1c-1-6.6-1.4-13.4-2-20.2c1.2-0.1,1.8-0.2,2.4-0.2c9.8,0,19.7,0,29.5,0c0.8,0,2,0.3,2.3,0.9
	c2.8,5.3,7.6,7.7,13,9.3c8.7,2.6,17.7,3,26.7,3.3C81.2,120.3,86,120.2,90.9,120.2z"/>
<path class="st0" d="M587.4,116.5c0.4,24.5-12.3,44.5-36.9,49.5c-5.4,1.1-11,1.4-16.6,1.6c-10.3,0.2-20.7,0.1-31,0.1
	c-0.9,0-215.8,0-216.9,0c0-15.7,0-31.2,0-47.1c0.9,0,215.8,0,216.7,0c13.1,0,26.2,0.1,39.2-0.1c4.1-0.1,8.2-0.8,12.4-1.3
	c0.9-0.1,1.9-0.3,2.6-0.8c2.8-2.3,6.1-1.8,9.3-1.8C573.2,116.5,580.2,116.5,587.4,116.5z"/>
<path class="st0" d="M281.5,120.5c0,15.8,0,31.3,0,46.7c-15.1,0.6-30.9-5-36.4-24.8c-5.4,18.9-19.3,24.6-36.9,25.1
	c0-15.7,0-31.2,0-46.9c3.1-0.4,6.2-0.6,9.3-1.2c6.5-1.3,10.7-5.1,11.7-11.9c0.1-0.6,0.3-1.3,0.5-1.9c10.8,0,21.6,0,32.5,0
	C262.8,118,271.4,120.2,281.5,120.5z"/>
<path class="st0" d="M505.1,57.6c15.3,2.4,30.4,5,45,9.8c9.6,3.2,18.9,7.3,26.2,14.7c8.2,8.2,10.9,18.5,11.3,30c-3.5,0-6.7,0-9.9,0
	c-5.1,0-10.2,0-15.2,0c-0.7,0-1.9-0.2-2.2-0.7c-2.4-4.3-6.7-5.9-10.8-7.6c-11.7-4.6-24.1-6.9-36.5-9.3c-2.6-0.5-5.2-1-8-1.5
	C505.1,81.3,505.1,69.6,505.1,57.6z"/>
<path class="st0" d="M595,3.1c0,13.5,0,26.4-0.1,39.4c0,0.7-0.9,1.7-1.6,2.1c-8.5,4-17,8-25.5,12c-4.4,2.1-8.8,4.2-13.3,6.2
	c-1,0.4-2.3,0.6-3.3,0.4c-14.7-4.1-29.6-7.2-44.6-9.6c-0.6-0.1-1.7-0.9-1.6-1.3c0.1-0.8,0.6-1.9,1.3-2.3c8.3-4.5,16.7-8.9,25.1-13.4
	c19.4-10.3,38.8-20.5,58.2-30.8C591.2,5,592.9,4.2,595,3.1z"/>
<path class="st0" d="M676.1,120.7c1.9-0.3,3.6-0.6,5.3-0.9c6.7-1.2,10.7-5.3,12.4-11.7c0.5-1.7,1.1-2.4,3-2.4c8.8,0.1,17.6,0,26.5,0
	c0.7,0,1.5,0,2.6,0c-0.1,2.4-0.1,4.6-0.4,6.8c-1.2,12.9-4.6,25.1-12.5,35.8c-8,10.8-18.8,17-32.1,18.9c-1.5,0.2-3.1,0.3-4.8,0.5
	C676.1,151.9,676.1,136.4,676.1,120.7z"/>
<path class="st0" d="M575.9,171.9c9,2.1,17.9,2.7,27.1,0.8c0,16,0,31.8,0,47.9c-9,0.9-17.8,0.5-25.9-4c-0.7-0.4-1.4-1.5-1.4-2.3
	c-0.1-13.8,0-27.7,0-41.5C575.7,172.5,575.8,172.4,575.9,171.9z"/>
<path class="st0" d="M722.9,70.3c1.2,10.4,2.3,20.6,3.5,31c-10.8,0-20.9,0-30.6,0c-1.2-10.4-2.3-20.7-3.5-31
	C702.2,70.3,712.2,70.3,722.9,70.3z"/>
<path class="st0" d="M35.5,102.2c-10.8,0-21.4,0-32.4,0c0.5-4.5,0.8-8.9,1.4-13.2c0.8-4.8,1.9-9.5,3-14.1c0.2-0.7,1.2-1.6,1.9-1.7
	c9.6-0.1,19.1-0.1,28.7-0.1c0.3,0,0.6,0.2,1.1,0.3C36.2,82.8,34.4,92.2,35.5,102.2z"/>
<path class="st0" d="M78.2,196.3c6.2-6,13.2-12.8,20.3-19.7c7.1,6.8,14,13.6,20.7,20.1c-6.9,7.2-13.5,14.3-20.4,21.5
	C91.8,210.7,85,203.6,78.2,196.3z"/>
<path class="st0" d="M184.6,77.9c0,7.9,0,15.7,0,23.6c-10.6,0-21.1,0-31.8,0c0-7.9,0-15.6,0-23.6C163.3,77.9,173.8,77.9,184.6,77.9z
	"/>
<path class="st0" d="M229.7,101.4c0-7.9,0-15.6,0-23.5c10.6,0,21.1,0,31.9,0c0,7.7,0,15.5,0,23.5C251,101.4,240.5,101.4,229.7,101.4
	z"/>
<path class="st0" d="M724.5,21c6.4,6.6,12.3,12.7,18.5,19.1c-6,6.3-12,12.5-18.1,18.8c-4.8-4.8-9.6-9.5-14.2-14.2
	c-0.6-0.6-0.4-1.8-0.6-2.8c-0.7-4.1,0.8-7.2,4-10C717.8,28.7,720.9,24.8,724.5,21z"/>
<path class="st0" d="M691.2,58.9c-6.2-6.4-12.2-12.5-18.4-19c6.4-5.9,12.6-11.8,19.1-17.7c4,3.9,8.6,8.3,13.1,12.9
	c0.5,0.5,0.7,1.5,0.8,2.2c0.6,4.5-0.4,8.3-4.3,11.4C697.8,51.6,694.8,55.3,691.2,58.9z"/>
<path class="st0" d="M229.3,209.5c-5.6-5.8-10.8-11.3-16.5-17.2c5.7-5.3,11.4-10.5,17.1-15.8c3.4,3.3,7.6,7.2,11.5,11.3
	c0.9,0.9,0.8,2.8,1.1,4.3c0.5,2.9-0.6,5-2.8,6.9C236.2,202.3,232.9,205.8,229.3,209.5z"/>
<path class="st0" d="M259.6,175.7c5.5,5.7,10.7,11.1,16.2,16.8c-5.4,5.6-10.7,11.1-16.2,16.8c-4.2-4.2-8.8-8.1-12.3-12.7
	c-1.4-1.8-1.5-6.3-0.2-8.1C250.7,183.9,255.3,180,259.6,175.7z"/>
</svg>
