<?xml version="1.0" encoding="utf-8"?>
<!-- Generator: Adobe Illustrator 27.0.1, SVG Export Plug-In . SVG Version: 6.00 Build 0)  -->
<svg version="1.1" id="Layer_1" xmlns="http://www.w3.org/2000/svg" xmlns:xlink="http://www.w3.org/1999/xlink" x="0px" y="0px"
	 viewBox="0 0 1097.78 163.59" style="enable-background:new 0 0 1097.78 163.59;" xml:space="preserve">
<style type="text/css">
	.st0{fill:#DB6D58;}
	.st1{fill:#B9EDF9;}
	.st2{fill:url(#SVGID_1_);}
</style>
<g>
	<g>
		<g>
			<g>
				<g>
					<path class="st1" d="M465.12,101.78h-395c-1.38,0-2.5,1.12-2.5,2.5s1.12,2.5,2.5,2.5h395c1.38,0,2.5-1.12,2.5-2.5
						S466.5,101.78,465.12,101.78z"/>
					<path class="st1" d="M502.66,101.51h-24.45c-1.53,0-2.77,1.24-2.77,2.77s1.24,2.77,2.77,2.77h24.45c1.53,0,2.77-1.24,2.77-2.77
						S504.19,101.51,502.66,101.51z"/>
					<path class="st1" d="M538.66,101.51h-24.45c-1.53,0-2.77,1.24-2.77,2.77s1.24,2.77,2.77,2.77h24.45c1.53,0,2.77-1.24,2.77-2.77
						S540.19,101.51,538.66,101.51z"/>
					<path class="st1" d="M574.66,101.51h-24.45c-1.53,0-2.77,1.24-2.77,2.77s1.24,2.77,2.77,2.77h24.45c1.53,0,2.77-1.24,2.77-2.77
						S576.19,101.51,574.66,101.51z"/>
					<path class="st1" d="M610.66,101.51h-24.45c-1.53,0-2.77,1.24-2.77,2.77s1.24,2.77,2.77,2.77h24.45c1.53,0,2.77-1.24,2.77-2.77
						S612.19,101.51,610.66,101.51z"/>
					<path class="st1" d="M646.66,101.51h-24.45c-1.53,0-2.77,1.24-2.77,2.77s1.24,2.77,2.77,2.77h24.45c1.53,0,2.77-1.24,2.77-2.77
						S648.19,101.51,646.66,101.51z"/>
					<path class="st1" d="M682.66,101.51h-24.45c-1.53,0-2.77,1.24-2.77,2.77s1.24,2.77,2.77,2.77h24.45c1.53,0,2.77-1.24,2.77-2.77
						S684.19,101.51,682.66,101.51z"/>
					<path class="st1" d="M718.66,101.51h-24.45c-1.53,0-2.77,1.24-2.77,2.77s1.24,2.77,2.77,2.77h24.45c1.53,0,2.77-1.24,2.77-2.77
						S720.19,101.51,718.66,101.51z"/>
					<path class="st1" d="M754.66,101.51h-24.45c-1.53,0-2.77,1.24-2.77,2.77s1.24,2.77,2.77,2.77h24.45c1.53,0,2.77-1.24,2.77-2.77
						S756.19,101.51,754.66,101.51z"/>
					<path class="st1" d="M790.66,101.51h-24.45c-1.53,0-2.77,1.24-2.77,2.77s1.24,2.77,2.77,2.77h24.45c1.53,0,2.77-1.24,2.77-2.77
						S792.19,101.51,790.66,101.51z"/>
					<path class="st1" d="M826.66,101.51h-24.45c-1.53,0-2.77,1.24-2.77,2.77s1.24,2.77,2.77,2.77h24.45c1.53,0,2.77-1.24,2.77-2.77
						S828.19,101.51,826.66,101.51z"/>
					<path class="st1" d="M862.66,101.51h-24.45c-1.53,0-2.77,1.24-2.77,2.77s1.24,2.77,2.77,2.77h24.45c1.53,0,2.77-1.24,2.77-2.77
						S864.19,101.51,862.66,101.51z"/>
					<path class="st1" d="M1027.39,101.51H873.07c-1.53,0-2.77,1.24-2.77,2.77s1.24,2.77,2.77,2.77h154.31
						c1.53,0,2.77-1.24,2.77-2.77S1028.92,101.51,1027.39,101.51z"/>
				</g>
			</g>
		</g>
		<g>
			<g>
				<path class="st1" d="M67.9,59.76V43.91h9.71v1.93h-7.5v5.73h6.3v1.91h-6.3v6.28H67.9z"/>
				<path class="st1" d="M79.97,59.76V43.91h3.82l4.07,12.56l4.05-12.56h3.84v15.85h-2.21V46.44h-0.32l-4.21,12.79h-2.3l-4.19-12.79
					h-0.35v13.32H79.97z"/>
			</g>
		</g>
		<g>
			<g>
				<g>
					<path class="st1" d="M481.83,59.99c-0.78,0-1.51-0.07-2.2-0.2c-0.68-0.13-1.29-0.35-1.83-0.67c-0.54-0.31-0.95-0.74-1.25-1.27
						c-0.3-0.53-0.45-1.19-0.45-1.99c0-0.77,0.11-1.4,0.32-1.89s0.51-0.9,0.89-1.22c0.38-0.32,0.82-0.63,1.32-0.92
						c-0.51-0.28-0.93-0.57-1.26-0.87c-0.34-0.31-0.59-0.68-0.76-1.12c-0.17-0.44-0.25-0.96-0.25-1.58c0-0.9,0.23-1.65,0.68-2.23
						c0.45-0.58,1.09-1.02,1.91-1.3s1.78-0.43,2.89-0.43c1.09,0,2.05,0.14,2.88,0.43s1.48,0.72,1.96,1.3
						c0.48,0.58,0.71,1.33,0.71,2.25c0,0.64-0.08,1.18-0.25,1.61c-0.17,0.43-0.43,0.79-0.78,1.09s-0.82,0.58-1.4,0.84
						c0.54,0.25,1.01,0.53,1.41,0.85c0.41,0.32,0.72,0.71,0.93,1.17c0.21,0.46,0.32,1.05,0.32,1.77c0,0.84-0.15,1.54-0.45,2.1
						c-0.3,0.56-0.72,1-1.25,1.33c-0.54,0.33-1.15,0.56-1.85,0.7S482.61,59.99,481.83,59.99z M481.83,58.08
						c0.67,0,1.27-0.08,1.79-0.23c0.52-0.15,0.93-0.43,1.23-0.83s0.45-0.93,0.45-1.59c0-0.55-0.11-0.99-0.32-1.31
						c-0.21-0.32-0.5-0.58-0.86-0.78c-0.36-0.2-0.77-0.37-1.23-0.51h-2.23c-0.71,0.2-1.26,0.51-1.66,0.92c-0.4,0.41-0.6,1-0.6,1.77
						c0,0.63,0.15,1.13,0.45,1.52s0.71,0.65,1.22,0.8C480.58,58,481.17,58.08,481.83,58.08z M480.66,51.02h2.23
						c0.69-0.24,1.23-0.55,1.61-0.92c0.38-0.37,0.58-0.87,0.58-1.52c0-0.84-0.28-1.44-0.85-1.81c-0.57-0.36-1.37-0.54-2.39-0.54
						c-0.98,0-1.76,0.18-2.32,0.53c-0.57,0.35-0.85,0.95-0.85,1.79c0,0.64,0.17,1.16,0.51,1.54C479.5,50.48,480,50.79,480.66,51.02z
						"/>
					<path class="st1" d="M494.69,59.99c-0.78,0-1.51-0.07-2.2-0.2c-0.68-0.13-1.29-0.35-1.83-0.67c-0.54-0.31-0.95-0.74-1.25-1.27
						c-0.3-0.53-0.45-1.19-0.45-1.99c0-0.77,0.11-1.4,0.32-1.89s0.51-0.9,0.89-1.22c0.38-0.32,0.82-0.63,1.32-0.92
						c-0.51-0.28-0.93-0.57-1.26-0.87c-0.34-0.31-0.59-0.68-0.76-1.12c-0.17-0.44-0.25-0.96-0.25-1.58c0-0.9,0.23-1.65,0.68-2.23
						c0.45-0.58,1.09-1.02,1.91-1.3s1.78-0.43,2.89-0.43c1.09,0,2.05,0.14,2.88,0.43s1.48,0.72,1.96,1.3
						c0.48,0.58,0.71,1.33,0.71,2.25c0,0.64-0.08,1.18-0.25,1.61c-0.17,0.43-0.43,0.79-0.78,1.09s-0.82,0.58-1.4,0.84
						c0.54,0.25,1.01,0.53,1.41,0.85c0.41,0.32,0.72,0.71,0.93,1.17c0.21,0.46,0.32,1.05,0.32,1.77c0,0.84-0.15,1.54-0.45,2.1
						c-0.3,0.56-0.72,1-1.25,1.33c-0.54,0.33-1.15,0.56-1.85,0.7S495.47,59.99,494.69,59.99z M494.69,58.08
						c0.67,0,1.27-0.08,1.79-0.23c0.52-0.15,0.93-0.43,1.23-0.83s0.45-0.93,0.45-1.59c0-0.55-0.11-0.99-0.32-1.31
						c-0.21-0.32-0.5-0.58-0.86-0.78c-0.36-0.2-0.77-0.37-1.23-0.51h-2.23c-0.71,0.2-1.26,0.51-1.66,0.92c-0.4,0.41-0.6,1-0.6,1.77
						c0,0.63,0.15,1.13,0.45,1.52s0.71,0.65,1.22,0.8C493.44,58,494.03,58.08,494.69,58.08z M493.51,51.02h2.23
						c0.69-0.24,1.23-0.55,1.61-0.92c0.38-0.37,0.58-0.87,0.58-1.52c0-0.84-0.28-1.44-0.85-1.81c-0.57-0.36-1.37-0.54-2.39-0.54
						c-0.98,0-1.76,0.18-2.32,0.53c-0.57,0.35-0.85,0.95-0.85,1.79c0,0.64,0.17,1.16,0.51,1.54
						C492.36,50.48,492.85,50.79,493.51,51.02z"/>
				</g>
			</g>
		</g>
		<g>
			<g>
				<path class="st1" d="M556.14,59.99c-0.46,0-0.96-0.02-1.5-0.07s-1.05-0.1-1.54-0.17c-0.49-0.07-0.9-0.13-1.24-0.2l0.18-1.75
					c0.32,0.03,0.71,0.07,1.16,0.12c0.45,0.05,0.94,0.09,1.45,0.13c0.51,0.04,1,0.06,1.46,0.06c1.29,0,2.25-0.4,2.89-1.2
					c0.64-0.8,0.96-2.01,0.98-3.63c-0.37,0.14-0.77,0.27-1.21,0.4c-0.44,0.13-0.87,0.23-1.29,0.31s-0.82,0.11-1.18,0.11
					c-1.61,0-2.84-0.38-3.7-1.14c-0.86-0.76-1.29-1.95-1.29-3.58c0-1.06,0.22-1.96,0.66-2.71c0.44-0.75,1.05-1.33,1.85-1.73
					c0.8-0.4,1.74-0.6,2.83-0.6c1.3,0,2.36,0.31,3.17,0.94c0.81,0.63,1.42,1.53,1.81,2.71c0.39,1.18,0.59,2.58,0.59,4.19
					c0,1.49-0.14,2.73-0.43,3.74c-0.28,1-0.69,1.81-1.21,2.4c-0.52,0.6-1.15,1.02-1.9,1.28C557.93,59.86,557.09,59.99,556.14,59.99z
					 M556.5,52.21c0.37,0,0.77-0.04,1.2-0.13c0.43-0.08,0.85-0.19,1.26-0.31c0.41-0.12,0.76-0.24,1.04-0.35
					c-0.02-1.01-0.13-1.91-0.36-2.69c-0.22-0.78-0.58-1.4-1.06-1.84c-0.48-0.44-1.13-0.67-1.94-0.67c-0.98,0-1.75,0.28-2.31,0.85
					s-0.84,1.34-0.84,2.32c0,0.97,0.26,1.68,0.77,2.13C554.78,51.99,555.52,52.21,556.5,52.21z"/>
				<path class="st1" d="M564.81,59.76v-1.82l4.12-4.3c0.64-0.66,1.2-1.25,1.67-1.78c0.47-0.53,0.82-1.04,1.07-1.54
					c0.25-0.5,0.37-1.02,0.37-1.58c0-0.94-0.26-1.58-0.77-1.93c-0.51-0.35-1.29-0.53-2.33-0.53c-0.4,0-0.84,0.03-1.32,0.08
					c-0.48,0.05-0.95,0.11-1.39,0.18c-0.45,0.07-0.83,0.14-1.15,0.22l-0.14-1.77c0.32-0.11,0.72-0.21,1.21-0.3
					c0.48-0.09,1.01-0.17,1.58-0.24c0.57-0.07,1.13-0.1,1.68-0.1c1.62,0,2.85,0.33,3.67,0.98c0.82,0.65,1.23,1.7,1.23,3.14
					c0,0.77-0.12,1.45-0.35,2.05c-0.23,0.6-0.58,1.18-1.05,1.76c-0.47,0.57-1.07,1.21-1.81,1.9l-3.73,3.7h7.25v1.89H564.81z"/>
			</g>
		</g>
		<g>
			<g>
				<path class="st1" d="M618.22,59.69V46.92l-3.8,2.44l-0.92-1.63l4.9-3.22h2v15.18H618.22z"/>
				<path class="st1" d="M630.52,59.92c-0.91,0-1.7-0.13-2.39-0.38c-0.69-0.25-1.27-0.67-1.75-1.25c-0.47-0.58-0.84-1.36-1.09-2.35
					c-0.25-0.98-0.38-2.19-0.38-3.63c0-1.53,0.12-2.82,0.37-3.85c0.25-1.04,0.61-1.86,1.09-2.47c0.48-0.61,1.07-1.05,1.76-1.32
					c0.69-0.27,1.48-0.4,2.37-0.4c0.94,0,1.75,0.13,2.45,0.4c0.7,0.27,1.28,0.71,1.75,1.32s0.82,1.43,1.06,2.46
					c0.24,1.03,0.36,2.32,0.36,3.86c0,1.92-0.21,3.43-0.64,4.54c-0.43,1.11-1.06,1.9-1.89,2.37
					C632.75,59.68,631.73,59.92,630.52,59.92z M630.52,58.01c0.55,0,1.04-0.09,1.45-0.26c0.41-0.18,0.76-0.48,1.05-0.9
					s0.5-1,0.63-1.75s0.21-1.68,0.21-2.79c0-1.23-0.07-2.23-0.2-3.02c-0.13-0.79-0.33-1.41-0.61-1.86
					c-0.28-0.45-0.62-0.77-1.03-0.97s-0.91-0.29-1.5-0.29c-0.55,0-1.04,0.1-1.47,0.29c-0.43,0.19-0.78,0.51-1.05,0.95
					c-0.27,0.45-0.47,1.07-0.61,1.86c-0.14,0.8-0.21,1.82-0.21,3.06c0,1.12,0.07,2.05,0.22,2.79c0.15,0.74,0.36,1.32,0.64,1.74
					c0.28,0.41,0.63,0.71,1.05,0.89C629.51,57.92,629.98,58.01,630.52,58.01z"/>
				<path class="st1" d="M643.38,59.92c-0.9,0-1.7-0.13-2.39-0.38c-0.69-0.25-1.27-0.67-1.75-1.25c-0.48-0.58-0.84-1.36-1.09-2.35
					c-0.25-0.98-0.38-2.19-0.38-3.63c0-1.53,0.12-2.82,0.37-3.85c0.25-1.04,0.61-1.86,1.09-2.47c0.48-0.61,1.07-1.05,1.76-1.32
					c0.69-0.27,1.48-0.4,2.37-0.4c0.93,0,1.75,0.13,2.45,0.4c0.7,0.27,1.28,0.71,1.75,1.32s0.82,1.43,1.06,2.46
					c0.24,1.03,0.36,2.32,0.36,3.86c0,1.92-0.21,3.43-0.64,4.54c-0.43,1.11-1.06,1.9-1.89,2.37
					C645.61,59.68,644.59,59.92,643.38,59.92z M643.38,58.01c0.55,0,1.04-0.09,1.45-0.26s0.76-0.48,1.05-0.9
					c0.28-0.42,0.49-1,0.63-1.75c0.14-0.74,0.21-1.68,0.21-2.79c0-1.23-0.07-2.23-0.2-3.02c-0.13-0.79-0.33-1.41-0.61-1.86
					c-0.28-0.45-0.62-0.77-1.04-0.97s-0.91-0.29-1.5-0.29c-0.55,0-1.04,0.1-1.47,0.29c-0.43,0.19-0.78,0.51-1.05,0.95
					c-0.27,0.45-0.47,1.07-0.61,1.86s-0.21,1.82-0.21,3.06c0,1.12,0.07,2.05,0.22,2.79s0.36,1.32,0.64,1.74
					c0.28,0.41,0.63,0.71,1.05,0.89S642.84,58.01,643.38,58.01z"/>
			</g>
		</g>
		<g>
			<g>
				<path class="st1" d="M692.97,59.69V46.92l-3.8,2.44l-0.92-1.63l4.9-3.22h2v15.18H692.97z"/>
				<path class="st1" d="M705.28,59.92c-0.91,0-1.7-0.13-2.39-0.38c-0.69-0.25-1.27-0.67-1.75-1.25c-0.47-0.58-0.84-1.36-1.09-2.35
					c-0.25-0.98-0.38-2.19-0.38-3.63c0-1.53,0.12-2.82,0.37-3.85c0.25-1.04,0.61-1.86,1.09-2.47c0.48-0.61,1.07-1.05,1.76-1.32
					c0.69-0.27,1.48-0.4,2.37-0.4c0.94,0,1.75,0.13,2.45,0.4c0.7,0.27,1.28,0.71,1.75,1.32s0.82,1.43,1.06,2.46
					c0.24,1.03,0.36,2.32,0.36,3.86c0,1.92-0.21,3.43-0.64,4.54c-0.43,1.11-1.06,1.9-1.89,2.37
					C707.51,59.68,706.49,59.92,705.28,59.92z M705.28,58.01c0.55,0,1.04-0.09,1.45-0.26c0.41-0.18,0.76-0.48,1.05-0.9
					s0.5-1,0.63-1.75s0.21-1.68,0.21-2.79c0-1.23-0.07-2.23-0.2-3.02c-0.13-0.79-0.33-1.41-0.61-1.86
					c-0.28-0.45-0.62-0.77-1.03-0.97s-0.91-0.29-1.5-0.29c-0.55,0-1.04,0.1-1.47,0.29c-0.43,0.19-0.78,0.51-1.05,0.95
					c-0.27,0.45-0.47,1.07-0.61,1.86c-0.14,0.8-0.21,1.82-0.21,3.06c0,1.12,0.07,2.05,0.22,2.79c0.15,0.74,0.36,1.32,0.64,1.74
					c0.28,0.41,0.63,0.71,1.05,0.89C704.27,57.92,704.74,58.01,705.28,58.01z"/>
				<path class="st1" d="M719.79,59.69v-2.83h-7.2V55.2l4.05-10.7h2.46l-4.25,10.44h4.95l0.05-4.49h2.14v4.49h1.77v1.91h-1.77v2.83
					H719.79z"/>
			</g>
		</g>
		<g>
			<g>
				<path class="st1" d="M764.97,59.69V46.92l-3.8,2.44l-0.92-1.63l4.9-3.22h2v15.18H764.97z"/>
				<path class="st1" d="M777.28,59.92c-0.91,0-1.7-0.13-2.39-0.38c-0.69-0.25-1.27-0.67-1.75-1.25c-0.47-0.58-0.84-1.36-1.09-2.35
					c-0.25-0.98-0.38-2.19-0.38-3.63c0-1.53,0.12-2.82,0.37-3.85c0.25-1.04,0.61-1.86,1.09-2.47c0.48-0.61,1.07-1.05,1.76-1.32
					c0.69-0.27,1.48-0.4,2.37-0.4c0.94,0,1.75,0.13,2.45,0.4c0.7,0.27,1.28,0.71,1.75,1.32s0.82,1.43,1.06,2.46
					c0.24,1.03,0.36,2.32,0.36,3.86c0,1.92-0.21,3.43-0.64,4.54c-0.43,1.11-1.06,1.9-1.89,2.37
					C779.51,59.68,778.49,59.92,777.28,59.92z M777.28,58.01c0.55,0,1.04-0.09,1.45-0.26c0.41-0.18,0.76-0.48,1.05-0.9
					s0.5-1,0.63-1.75s0.21-1.68,0.21-2.79c0-1.23-0.07-2.23-0.2-3.02c-0.13-0.79-0.33-1.41-0.61-1.86
					c-0.28-0.45-0.62-0.77-1.03-0.97s-0.91-0.29-1.5-0.29c-0.55,0-1.04,0.1-1.47,0.29c-0.43,0.19-0.78,0.51-1.05,0.95
					c-0.27,0.45-0.47,1.07-0.61,1.86c-0.14,0.8-0.21,1.82-0.21,3.06c0,1.12,0.07,2.05,0.22,2.79c0.15,0.74,0.36,1.32,0.64,1.74
					c0.28,0.41,0.63,0.71,1.05,0.89C776.27,57.92,776.74,58.01,777.28,58.01z"/>
				<path class="st1" d="M790.11,59.92c-0.78,0-1.51-0.07-2.2-0.2c-0.68-0.13-1.29-0.35-1.83-0.67s-0.95-0.74-1.25-1.27
					c-0.3-0.53-0.45-1.19-0.45-1.99c0-0.77,0.11-1.4,0.32-1.89s0.51-0.9,0.89-1.22c0.38-0.32,0.82-0.63,1.32-0.92
					c-0.51-0.28-0.93-0.57-1.26-0.87c-0.34-0.31-0.59-0.68-0.76-1.12s-0.25-0.96-0.25-1.58c0-0.9,0.23-1.65,0.68-2.23
					c0.45-0.58,1.09-1.02,1.91-1.3s1.78-0.43,2.89-0.43c1.09,0,2.05,0.14,2.88,0.43s1.48,0.72,1.96,1.3
					c0.47,0.58,0.71,1.33,0.71,2.25c0,0.64-0.08,1.18-0.25,1.61c-0.17,0.43-0.43,0.79-0.78,1.09s-0.82,0.58-1.4,0.84
					c0.54,0.25,1.01,0.53,1.42,0.85c0.41,0.32,0.72,0.71,0.93,1.17c0.21,0.46,0.32,1.05,0.32,1.77c0,0.84-0.15,1.54-0.45,2.1
					c-0.3,0.56-0.72,1-1.25,1.33c-0.54,0.33-1.15,0.56-1.85,0.7C791.63,59.85,790.89,59.92,790.11,59.92z M790.11,58.01
					c0.67,0,1.27-0.08,1.79-0.23c0.52-0.15,0.93-0.43,1.23-0.83s0.45-0.93,0.45-1.59c0-0.55-0.11-0.99-0.32-1.31
					c-0.21-0.32-0.5-0.58-0.86-0.78s-0.77-0.37-1.23-0.51h-2.23c-0.71,0.2-1.26,0.51-1.66,0.92c-0.4,0.41-0.6,1-0.6,1.77
					c0,0.63,0.15,1.13,0.45,1.52s0.71,0.65,1.22,0.8C788.87,57.93,789.45,58.01,790.11,58.01z M788.94,50.95h2.23
					c0.69-0.24,1.23-0.55,1.61-0.92c0.38-0.37,0.58-0.87,0.58-1.52c0-0.84-0.28-1.44-0.85-1.81s-1.37-0.54-2.39-0.54
					c-0.98,0-1.76,0.18-2.32,0.53c-0.57,0.35-0.85,0.95-0.85,1.79c0,0.64,0.17,1.16,0.51,1.54
					C787.78,50.41,788.28,50.72,788.94,50.95z"/>
			</g>
		</g>
		<g>
			<g>
				<path class="st1" d="M836.97,59.69V46.92l-3.8,2.44l-0.92-1.63l4.9-3.22h2v15.18H836.97z"/>
				<path class="st1" d="M849.83,59.69V46.92l-3.79,2.44l-0.92-1.63l4.9-3.22h2v15.18H849.83z"/>
				<path class="st1" d="M862.14,59.92c-0.9,0-1.7-0.13-2.39-0.38c-0.69-0.25-1.27-0.67-1.75-1.25c-0.48-0.58-0.84-1.36-1.09-2.35
					c-0.25-0.98-0.38-2.19-0.38-3.63c0-1.53,0.12-2.82,0.37-3.85c0.25-1.04,0.61-1.86,1.09-2.47c0.48-0.61,1.07-1.05,1.76-1.32
					c0.69-0.27,1.48-0.4,2.37-0.4c0.93,0,1.75,0.13,2.45,0.4c0.7,0.27,1.28,0.71,1.75,1.32s0.82,1.43,1.06,2.46
					c0.24,1.03,0.36,2.32,0.36,3.86c0,1.92-0.21,3.43-0.64,4.54c-0.43,1.11-1.06,1.9-1.89,2.37
					C864.37,59.68,863.35,59.92,862.14,59.92z M862.14,58.01c0.55,0,1.04-0.09,1.45-0.26s0.76-0.48,1.05-0.9
					c0.28-0.42,0.49-1,0.63-1.75c0.14-0.74,0.21-1.68,0.21-2.79c0-1.23-0.07-2.23-0.2-3.02c-0.13-0.79-0.33-1.41-0.61-1.86
					c-0.28-0.45-0.62-0.77-1.04-0.97s-0.91-0.29-1.5-0.29c-0.55,0-1.04,0.1-1.47,0.29c-0.43,0.19-0.78,0.51-1.05,0.95
					c-0.27,0.45-0.47,1.07-0.61,1.86s-0.21,1.82-0.21,3.06c0,1.12,0.07,2.05,0.22,2.79s0.36,1.32,0.64,1.74
					c0.28,0.41,0.63,0.71,1.05,0.89S861.6,58.01,862.14,58.01z"/>
			</g>
		</g>
	</g>
</g>
<linearGradient id="SVGID_1_" gradientUnits="userSpaceOnUse" x1="485.0428" y1="103.1901" x2="492.1565" y2="103.1901">
	<stop  offset="5.618000e-03" style="stop-color:#E27A8F;stop-opacity:0.6"/>
	<stop  offset="0.4494" style="stop-color:#DB4733;stop-opacity:0.8"/>
	<stop  offset="0.6014" style="stop-color:#BC322E"/>
</linearGradient>
</svg>
